<svg xmlns="http://www.w3.org/2000/svg"  viewBox="0 0 404 404" width="58px" height="58px"><path fill="#52c1ff" d="M388.796,0H15.204C6.807,0,0,6.807,0,15.204v78.194h404V15.204C404,6.807,397.193,0,388.796,0z"/><path fill="#e3edf0" d="M0,93.398v295.398C0,397.193,6.807,404,15.204,404h373.591c8.397,0,15.204-6.807,15.204-15.204 V93.398H0z"/><rect width="35.285" height="32" x="96.39" y="30.699" fill="#fff"/><rect width="35.286" height="32" x="161.551" y="30.699" fill="#fff"/><rect width="35.285" height="32" x="31.229" y="30.699" fill="#fff"/><rect width="72.764" height="32" x="148.788" y="316.323" fill="#738394"/><polygon fill="#738394" points="52.126,261.188 52.126,294.801 83.891,310.603 52.126,326.404 52.126,360.016 128.613,320.784 128.613,300.422"/></svg>